<svg width="56" height="56" viewBox="0 0 56 56" fill="none" xmlns="http://www.w3.org/2000/svg">
<circle cx="28" cy="28" r="28" fill="#08C7BF"/>
<path fill-rule="evenodd" clip-rule="evenodd" d="M27.9991 15.5547C21.1373 15.5547 15.5547 21.1373 15.5547 27.9991C15.5547 34.861 21.1373 40.4436 27.9991 40.4436C34.861 40.4436 40.4436 34.861 40.4436 27.9991C40.4436 21.1373 34.8611 15.5547 27.9991 15.5547ZM27.9988 38.8056C22.04 38.8056 17.1921 33.9576 17.1921 27.9988C17.1921 22.04 22.04 17.1921 27.9988 17.1921C33.9576 17.1921 38.8055 22.04 38.8055 27.9988C38.8055 33.9576 33.9576 38.8056 27.9988 38.8056ZM28.8496 27.254V22.5389C29.3305 22.7134 29.75 23.0336 30.0418 23.4666C30.3 23.8497 30.827 23.9558 31.2189 23.7035C31.6109 23.4513 31.7194 22.9363 31.4612 22.5532C30.8507 21.6473 29.9099 21.0323 28.8496 20.8155V19.4963C28.8496 19.0376 28.4691 18.6658 27.9997 18.6658C27.5304 18.6658 27.1499 19.0376 27.1499 19.4963V20.813C25.269 21.1962 23.8516 22.8286 23.8516 24.7786C23.8516 26.7287 25.2691 28.3612 27.1499 28.7444V33.4596C26.669 33.2851 26.2494 32.9649 25.9577 32.5318C25.6995 32.1487 25.1725 32.0426 24.7806 32.2949C24.3886 32.5471 24.28 33.0621 24.5383 33.4452C25.1488 34.3511 26.0896 34.9661 27.1499 35.1829V36.502C27.1499 36.9607 27.5304 37.3325 27.9997 37.3325C28.4691 37.3325 28.8496 36.9607 28.8496 36.502V35.1854C30.7305 34.8022 32.1479 33.1699 32.1479 31.2198C32.1479 29.2698 30.7305 27.6372 28.8496 27.254ZM25.551 24.7784C25.551 23.7518 26.218 22.877 27.1497 22.5393V27.0176C26.218 26.6798 25.551 25.805 25.551 24.7784ZM28.8482 33.4585V28.9801C29.7798 29.3179 30.4468 30.1927 30.4468 31.2193C30.4468 32.2459 29.78 33.1207 28.8482 33.4585Z" fill="white"/>
</svg>
