<?xml version="1.0" encoding="UTF-8"?>
<svg xmlns="http://www.w3.org/2000/svg" width="57" height="57" viewBox="0 0 57 57" fill="none">
  <circle cx="28.25" cy="28.2036" r="28" fill="#F8960F"></circle>
  <rect width="24" height="24" transform="translate(16.25 16.2036)" fill="white" fill-opacity="0.01"></rect>
  <path fill-rule="evenodd" clip-rule="evenodd" d="M27.5788 18.3334C27.7912 18.1777 28.0723 18.1621 28.2985 18.2867L28.3716 18.3334L38.4264 25.7069C38.725 25.9258 38.7895 26.3453 38.5706 26.6439C38.3685 26.9194 37.9955 26.9956 37.7045 26.8335L37.6336 26.788L27.9752 19.7045L18.3168 26.788C18.0412 26.9901 17.6626 26.9506 17.4338 26.7086L17.3799 26.6439C17.1778 26.3683 17.2172 25.9897 17.4593 25.7608L17.524 25.7069L27.5788 18.3334ZM17.2501 32.1838C17.2501 30.5178 18.6006 29.1673 20.2665 29.1673C21.9325 29.1673 23.283 30.5178 23.283 32.1838C23.283 33.2925 22.6848 34.2615 21.7936 34.7857C22.6949 35.0957 23.4743 35.6708 24.0349 36.4261L24.1202 36.5463L24.1705 36.4747C24.7386 35.6876 25.5361 35.0987 26.4466 34.7848C25.5562 34.2604 24.9587 33.2919 24.9587 32.1838C24.9587 30.5178 26.3092 29.1673 27.9751 29.1673C29.6411 29.1673 30.9916 30.5178 30.9916 32.1838C30.9916 33.2919 30.3941 34.2604 29.5037 34.7848C30.4142 35.0987 31.2117 35.6876 31.7799 36.4747L31.8295 36.5463L31.9154 36.4261C32.4761 35.6708 33.2555 35.0957 34.1568 34.7857C33.2656 34.2615 32.6674 33.2925 32.6674 32.1838C32.6674 30.5178 34.0179 29.1673 35.6838 29.1673C37.3498 29.1673 38.7003 30.5178 38.7003 32.1838C38.7003 33.2927 38.1019 34.2618 37.2104 34.7859C37.6377 34.933 38.0459 35.1425 38.4211 35.412C38.7217 35.628 38.7904 36.0469 38.5744 36.3475C38.3583 36.6482 37.9395 36.7168 37.6388 36.5008C36.8129 35.9074 35.7622 35.7211 34.7826 35.9944C33.803 36.2677 33.0005 36.971 32.601 37.9062C32.5061 38.1284 32.3002 38.2804 32.0642 38.3085L31.9846 38.3132H31.6744C31.4059 38.3132 31.1633 38.153 31.0579 37.906C30.531 36.671 29.3179 35.8697 27.9752 35.8697C26.6325 35.8697 25.4194 36.671 24.8924 37.906C24.7976 38.1283 24.5916 38.2803 24.3556 38.3085L24.2759 38.3132H23.9658C23.6973 38.3132 23.4548 38.1531 23.3493 37.9062C22.9498 36.971 22.1473 36.2677 21.1677 35.9944C20.1881 35.7211 19.1374 35.9074 18.3115 36.5008C18.0108 36.7168 17.592 36.6482 17.376 36.3475C17.16 36.0469 17.2286 35.628 17.5292 35.412C17.9044 35.1425 18.3127 34.933 18.7399 34.7859C17.8485 34.2618 17.2501 33.2927 17.2501 32.1838ZM21.9424 32.1837C21.9424 31.2582 21.1921 30.5079 20.2666 30.5079C19.3411 30.5079 18.5908 31.2582 18.5908 32.1837C18.5908 33.1093 19.3411 33.8595 20.2666 33.8595C21.1921 33.8595 21.9424 33.1093 21.9424 32.1837ZM35.6838 30.5079C36.6093 30.5079 37.3596 31.2582 37.3596 32.1837C37.3596 33.1093 36.6093 33.8595 35.6838 33.8595C34.7583 33.8595 34.008 33.1093 34.008 32.1837C34.008 31.2582 34.7583 30.5079 35.6838 30.5079ZM29.651 32.1837C29.651 31.2582 28.9007 30.5079 27.9752 30.5079C27.0497 30.5079 26.2994 31.2582 26.2994 32.1837C26.2994 33.1093 27.0497 33.8595 27.9752 33.8595C28.9007 33.8595 29.651 33.1093 29.651 32.1837Z" fill="white"></path>
</svg>
