<?xml version="1.0" encoding="UTF-8"?>
<svg xmlns="http://www.w3.org/2000/svg" width="57" height="57" viewBox="0 0 57 57" fill="none">
  <circle cx="28.25" cy="28.2036" r="28" fill="#08C7BF"></circle>
  <path fill-rule="evenodd" clip-rule="evenodd" d="M28.2491 15.7583C21.3873 15.7583 15.8047 21.3409 15.8047 28.2027C15.8047 35.0646 21.3873 40.6472 28.2491 40.6472C35.111 40.6472 40.6936 35.0646 40.6936 28.2027C40.6936 21.3409 35.1111 15.7583 28.2491 15.7583ZM28.2492 39.0092C22.2904 39.0092 17.4425 34.1612 17.4425 28.2024C17.4425 22.2436 22.2904 17.3957 28.2492 17.3957C34.208 17.3957 39.0559 22.2436 39.0559 28.2024C39.0559 34.1612 34.208 39.0092 28.2492 39.0092ZM29.0988 27.4576V22.7425C29.5797 22.917 29.9992 23.2372 30.291 23.6702C30.5492 24.0533 31.0762 24.1594 31.4681 23.9071C31.8601 23.6549 31.9687 23.1399 31.7104 22.7568C31.0999 21.8509 30.1591 21.2359 29.0988 21.0192V19.6999C29.0988 19.2413 28.7183 18.8694 28.2489 18.8694C27.7796 18.8694 27.3991 19.2413 27.3991 19.6999V21.0167C25.5182 21.3999 24.1008 23.0322 24.1008 24.9822C24.1008 26.9323 25.5183 28.5649 27.3991 28.9481V33.6632C26.9182 33.4887 26.4987 33.1685 26.2069 32.7354C25.9487 32.3524 25.4217 32.2462 25.0298 32.4985C24.6378 32.7507 24.5292 33.2657 24.7875 33.6488C25.398 34.5547 26.3388 35.1698 27.3991 35.3865V36.7056C27.3991 37.1643 27.7796 37.5361 28.2489 37.5361C28.7183 37.5361 29.0988 37.1643 29.0988 36.7056V35.389C30.9797 35.0058 32.3971 33.3735 32.3971 31.4234C32.3971 29.4734 30.9797 27.8408 29.0988 27.4576ZM25.8006 24.982C25.8006 23.9555 26.4676 23.0806 27.3993 22.7429V27.2212C26.4676 26.8834 25.8006 26.0086 25.8006 24.982ZM29.099 33.6621V29.1837C30.0306 29.5215 30.6976 30.3963 30.6976 31.4229C30.6976 32.4495 30.0307 33.3243 29.099 33.6621Z" fill="white"></path>
</svg>
