<svg width="56" height="56" viewBox="0 0 56 56" fill="none" xmlns="http://www.w3.org/2000/svg">
<circle cx="28" cy="28" r="28" fill="#EE2F88"/>
<path fill-rule="evenodd" clip-rule="evenodd" d="M27.9991 39.2817C27.7886 39.2817 27.5834 39.1953 27.4382 39.0442L17.4982 28.7649C15.4756 26.7615 14.9759 23.6993 16.2625 21.152C17.3977 18.9019 19.6836 17.5039 22.2277 17.5039C23.2655 17.5039 24.2638 17.7383 25.1958 18.1998C25.8375 18.5174 26.4191 18.9338 26.9261 19.4364L28.0001 20.5003L29.0742 19.4364C30.3296 18.1916 32.0018 17.506 33.7829 17.506C35.564 17.506 37.2351 18.1916 38.4916 19.4364C38.9986 19.9391 39.4184 20.5157 39.7388 21.151C41.0222 23.6962 40.5215 26.7594 38.4916 28.7721L28.562 39.0432C28.4148 39.1953 28.2095 39.2817 27.9991 39.2817ZM22.2224 19.0428C21.675 19.0428 21.1307 19.1312 20.6041 19.3049C19.3103 19.7325 18.2622 20.633 17.6526 21.8418C16.6667 23.7939 17.0513 26.1427 18.6084 27.6856L27.9989 37.3965L37.3781 27.6949C38.9424 26.1427 39.3291 23.7929 38.3453 21.8429C38.0996 21.3556 37.7782 20.9136 37.3895 20.5281C36.4274 19.5742 35.145 19.049 33.7807 19.049C32.4164 19.049 31.1339 19.5742 30.1719 20.5281L28.5484 22.1369C28.4012 22.2818 28.2063 22.362 27.9989 22.362C27.7916 22.362 27.5967 22.2818 27.4495 22.1369L25.826 20.5271C25.4372 20.1427 24.9914 19.824 24.5 19.5804C23.7806 19.2237 23.0144 19.0428 22.2224 19.0428Z" fill="white"/>
</svg>
